<?xml version="1.0" encoding="utf-8"?><!DOCTYPE svg PUBLIC "-//W3C//DTD SVG 1.1//EN" "http://www.w3.org/Graphics/SVG/1.1/DTD/svg11.dtd"><svg version="1.1" baseProfile="full" xmlns="http://www.w3.org/2000/svg" xmlns:xlink="http://www.w3.org/1999/xlink" xmlns:ev="http://www.w3.org/2001/xml-events"   height="48px"   width="56px" ><path fill="rgb( 80, 80, 112 )" d="M55.122,29.9400000000001 C55.122,29.9400000000001 52.299,32.7639999999999 52.299,32.7639999999999 C52.299,32.7639999999999 40.179,44.883 40.179,44.883 C40.172,44.8900000000001 40.162,44.8910000000001 40.155,44.8979999999999 C40.052,44.9960000000001 39.932,45.077 39.788,45.124 C39.788,45.124 31.317,47.9490000000001 31.317,47.9490000000001 C31.213,47.9839999999999 31.106,48 31,48 C30.739,48 30.4829999999999,47.8979999999999 30.293,47.7080000000001 C30.025,47.4400000000001 29.932,47.0440000000001 30.051,46.684 C30.051,46.684 32.875,38.212 32.875,38.212 C32.923,38.069 33.005,37.9480000000001 33.103,37.845 C33.109,37.838 33.11,37.828 33.117,37.8219999999999 C33.117,37.8219999999999 45.237,25.703 45.237,25.703 C45.237,25.703 48.061,22.8779999999999 48.061,22.8779999999999 C49.192,21.7460000000001 51.1660000000001,21.7460000000001 52.299,22.8779999999999 C52.299,22.8779999999999 55.122,25.703 55.122,25.703 C55.688,26.268 56,27.021 56,27.8219999999999 C56,28.6220000000001 55.688,29.375 55.122,29.9400000000001 ZM45.943,27.8240000000001 C45.943,27.8240000000001 35.675,38.0920000000001 35.675,38.0920000000001 C35.675,38.0920000000001 38.376,38.9929999999999 38.376,38.9929999999999 C38.674,39.0909999999999 38.909,39.326 39.008,39.625 C39.008,39.625 39.909,42.325 39.909,42.325 C39.909,42.325 50.177,32.057 50.177,32.057 C50.177,32.057 48.861,30.741 48.861,30.741 C48.861,30.741 45.943,27.8240000000001 45.943,27.8240000000001 ZM38.207,43.5440000000001 C38.207,43.5440000000001 37.269,40.732 37.269,40.732 C37.269,40.732 34.456,39.7940000000001 34.456,39.7940000000001 C34.456,39.7940000000001 32.581,45.4190000000001 32.581,45.4190000000001 C32.581,45.4190000000001 38.207,43.5440000000001 38.207,43.5440000000001 ZM53.708,27.117 C53.708,27.117 50.884,24.2929999999999 50.884,24.2929999999999 C50.5069999999999,23.915 49.851,23.9169999999999 49.475,24.2929999999999 C49.475,24.2929999999999 47.3579999999999,26.4100000000001 47.3579999999999,26.4100000000001 C47.3579999999999,26.4100000000001 49.474,28.5260000000001 49.474,28.5260000000001 C49.474,28.5260000000001 51.592,30.643 51.592,30.643 C51.592,30.643 53.708,28.5260000000001 53.708,28.5260000000001 C53.897,28.337 54,28.087 54,27.8219999999999 C54,27.5550000000001 53.897,27.3050000000001 53.708,27.117 ZM51,18.001 C50.448,18.001 50,17.5530000000001 50,17.001 C50,17.001 50,3.36899999999991 50,3.36899999999991 C50,3.36899999999991 30.847,21.7329999999999 30.847,21.7329999999999 C29.489,23.038 27.744,23.6900000000001 26,23.6900000000001 C24.256,23.6900000000001 22.5119999999999,23.038 21.152,21.7329999999999 C21.152,21.7329999999999 18.704,19.386 18.704,19.386 C18.704,19.386 3.46299999999997,34 3.46299999999997,34 C3.46299999999997,34 29,34 29,34 C29.552,34 30,34.4480000000001 30,35.001 C30,35.5530000000001 29.552,36 29,36 C29,36 3,36 3,36 C2.16899999999998,36 1.41600000000005,35.6600000000001 0.87199999999996,35.1120000000001 C0.87,35.1099999999999 0.86699999999996,35.1089999999999 0.86400000000003,35.107 C0.85900000000004,35.1020000000001 0.85799999999995,35.095 0.85299999999995,35.0889999999999 C0.327,34.549 0,33.8130000000001 0,33.001 C0,33.001 0,3.00099999999998 0,3.00099999999998 C0,2.1880000000001 0.327,1.452 0.85400000000004,0.91100000000006 C0.85799999999995,0.90599999999995 0.86000000000001,0.89899999999989 0.86400000000003,0.89400000000001 C0.86699999999996,0.89200000000005 0.87,0.89100000000008 0.87199999999996,0.8889999999999 C1.41600000000005,0.34099999999989 2.16899999999998,0.00099999999998 3,0.00099999999998 C3,0.00099999999998 49,0.00099999999998 49,0.00099999999998 C49.832,0.00099999999998 50.586,0.3420000000001 51.129,0.89100000000008 C51.131,0.89300000000003 51.134,0.89300000000003 51.135,0.89499999999998 C51.139,0.89899999999989 51.14,0.904 51.144,0.90900000000011 C51.672,1.45000000000005 52,2.1869999999999 52,3.00099999999998 C52,3.00099999999998 52,17.001 52,17.001 C52,17.5530000000001 51.552,18.001 51,18.001 ZM2,3.36799999999994 C2,3.36799999999994 2,32.633 2,32.633 C2,32.633 17.26,18.001 17.26,18.001 C17.26,18.001 2,3.36799999999994 2,3.36799999999994 ZM3.46299999999997,2.00099999999998 C3.46299999999997,2.00099999999998 22.537,20.29 22.537,20.29 C24.479,22.154 27.52,22.154 29.463,20.29 C29.463,20.29 48.538,2.00099999999998 48.538,2.00099999999998 C48.538,2.00099999999998 3.46299999999997,2.00099999999998 3.46299999999997,2.00099999999998 Z "/></svg>